<svg width="14" height="17" viewBox="0 0 14 17" fill="none" xmlns="http://www.w3.org/2000/svg">
<path d="M8.40625 8.66797L11.5 7.26172L8.40625 5.85547L7 2.76172L5.59375 5.85547L2.5 7.26172L5.59375 8.66797L7 11.7617L8.40625 8.66797ZM12.2383 0.511719C12.6367 0.511719 12.9883 0.664062 13.293 0.96875C13.5977 1.25 13.75 1.58984 13.75 1.98828V12.5C13.75 12.8984 13.5977 13.25 13.293 13.5547C12.9883 13.8594 12.6367 14.0117 12.2383 14.0117H9.25L7 16.2617L4.75 14.0117H1.76172C1.36328 14.0117 1.01172 13.8594 0.707031 13.5547C0.402344 13.25 0.25 12.8984 0.25 12.5V1.98828C0.25 1.58984 0.402344 1.25 0.707031 0.96875C1.01172 0.664062 1.36328 0.511719 1.76172 0.511719H12.2383Z" fill="#7A4DD8" fill-opacity="0.85"/>
</svg>
