<svg width="20" height="20" viewBox="0 0 20 20" fill="none" xmlns="http://www.w3.org/2000/svg">
<mask id="mask0_12_3071" style="mask-type:alpha" maskUnits="userSpaceOnUse" x="0" y="0" width="20" height="20">
<rect width="20" height="20" fill="#D9D9D9"/>
</mask>
<g mask="url(#mask0_12_3071)">
<path d="M4.42345 17.0834C4.00248 17.0834 3.64616 16.9376 3.35449 16.6459C3.06283 16.3542 2.91699 15.9979 2.91699 15.577V4.42321C2.91699 4.00223 3.06283 3.64591 3.35449 3.35425C3.64616 3.06258 4.00248 2.91675 4.42345 2.91675H15.5772C15.9982 2.91675 16.3545 3.06258 16.6462 3.35425C16.9378 3.64591 17.0837 4.00223 17.0837 4.42321V15.577C17.0837 15.9979 16.9378 16.3542 16.6462 16.6459C16.3545 16.9376 15.9982 17.0834 15.5772 17.0834H4.42345ZM4.16699 7.218H15.8337V4.42321C15.8337 4.35904 15.8069 4.30029 15.7535 4.24696C15.7001 4.19348 15.6414 4.16675 15.5772 4.16675H4.42345C4.35928 4.16675 4.30053 4.19348 4.2472 4.24696C4.19373 4.30029 4.16699 4.35904 4.16699 4.42321V7.218ZM4.16699 11.5322H15.8337V8.468H4.16699V11.5322ZM4.42345 15.8334H15.5772C15.6414 15.8334 15.7001 15.8067 15.7535 15.7532C15.8069 15.6999 15.8337 15.6411 15.8337 15.577V12.7822H4.16699V15.577C4.16699 15.6411 4.19373 15.6999 4.2472 15.7532C4.30053 15.8067 4.35928 15.8334 4.42345 15.8334ZM5.32095 6.43925V4.93279H6.8272V6.43925H5.32095ZM5.32095 10.7532V9.24696H6.8272V10.7532H5.32095ZM5.32095 15.0674V13.5609H6.8272V15.0674H5.32095Z" fill="black" fill-opacity="0.75"/>
</g>
</svg>
