<svg width="15" height="15" viewBox="0 0 15 15" fill="none" xmlns="http://www.w3.org/2000/svg">
<mask id="mask0_983_5006" style="mask-type:alpha" maskUnits="userSpaceOnUse" x="0" y="0" width="15" height="15">
<rect x="0.941406" y="0.304688" width="14" height="14" fill="#D9D9D9"/>
</mask>
<g mask="url(#mask0_983_5006)">
<path d="M6.19141 10.806C5.87057 10.806 5.59592 10.6918 5.36745 10.4633C5.13898 10.2348 5.02474 9.96016 5.02474 9.63932V2.63932C5.02474 2.31849 5.13898 2.04384 5.36745 1.81536C5.59592 1.58689 5.87057 1.47266 6.19141 1.47266H11.4414C11.7622 1.47266 12.0369 1.58689 12.2654 1.81536C12.4938 2.04384 12.6081 2.31849 12.6081 2.63932V9.63932C12.6081 9.96016 12.4938 10.2348 12.2654 10.4633C12.0369 10.6918 11.7622 10.806 11.4414 10.806H6.19141ZM6.19141 9.63932H11.4414V2.63932H6.19141V9.63932ZM3.85807 13.1393C3.53724 13.1393 3.26259 13.0251 3.03411 12.7966C2.80564 12.5681 2.69141 12.2935 2.69141 11.9727V3.80599H3.85807V11.9727H10.2747V13.1393H3.85807Z" fill="#B3B3B3"/>
</g>
</svg>
