<?xml version="1.0" encoding="utf-8"?>
<!-- Generator: Adobe Illustrator 25.2.1, SVG Export Plug-In . SVG Version: 6.00 Build 0)  -->
<svg version="1.1" id="Layer_1" xmlns="http://www.w3.org/2000/svg" xmlns:xlink="http://www.w3.org/1999/xlink" x="0px" y="0px"
	 viewBox="0 0 57.3 57.3" style="enable-background:new 0 0 57.3 57.3;" xml:space="preserve">
<style type="text/css">
	.st0{fill:#0883FF;}
	.st1{fill:#0040C8;}
	.st2{fill:#71C4F3;}
</style>
<g>
	<path class="st0" d="M35.1,56.5c-2.1,0.5-4.3,0.7-6.5,0.7C12.8,57.3,0,44.5,0,28.6C0,12.8,12.8,0,28.6,0c2.2,0,4.4,0.3,6.5,0.7
		C26.8,2.7,19.8,8.3,16,15.8c-3.3,3.3-5.4,7.8-5.4,12.8s2.1,9.5,5.4,12.8C19.8,49,26.8,54.6,35.1,56.5z"/>
	<path class="st1" d="M41.6,54.2c-2,1-4.2,1.8-6.5,2.4C26.8,54.6,19.8,49,16,41.4c3.3,3.2,7.7,5.2,12.6,5.2c1.2,0,2.3-0.1,3.5-0.3
		C34.6,49.6,37.9,52.3,41.6,54.2z"/>
	<path class="st1" d="M28.6,10.7c-4.9,0-9.4,2-12.6,5.2C19.8,8.3,26.8,2.7,35.1,0.7c2.3,0.5,4.5,1.3,6.5,2.4c-3.7,1.9-7,4.6-9.6,7.9
		C31,10.8,29.8,10.7,28.6,10.7z"/>
	<path class="st2" d="M57.3,28.6c0,11.1-6.4,20.8-15.6,25.5c-3.7-1.9-7-4.6-9.6-7.9c8.3-1.6,14.5-8.9,14.5-17.6
		c0-8.7-6.3-16-14.5-17.6c2.6-3.3,5.8-6,9.6-7.9C50.9,7.9,57.3,17.5,57.3,28.6z"/>
</g>
</svg>
