<svg width="18" height="20" viewBox="0 0 18 20" fill="none" xmlns="http://www.w3.org/2000/svg">
<path d="M15.9844 18.0156V7H2.01562V18.0156H15.9844ZM15.9844 1.98438C16.5156 1.98438 16.9844 2.1875 17.3906 2.59375C17.7969 3 18 3.46875 18 4V18.0156C18 18.5469 17.7969 19.0156 17.3906 19.4219C16.9844 19.7969 16.5156 19.9844 15.9844 19.9844H2.01562C1.45312 19.9844 0.96875 19.7969 0.5625 19.4219C0.1875 19.0469 0 18.5781 0 18.0156V4C0 3.46875 0.1875 3 0.5625 2.59375C0.96875 2.1875 1.45312 1.98438 2.01562 1.98438H3V0.015625H5.01562V1.98438H12.9844V0.015625H15V1.98438H15.9844ZM14.0156 9.01562V10.9844H12V9.01562H14.0156ZM9.98438 9.01562V10.9844H8.01562V9.01562H9.98438ZM6 9.01562V10.9844H3.98438V9.01562H6Z" fill="#555658"/>
</svg>
