<svg width="20" height="20" viewBox="0 0 20 20" fill="none" xmlns="http://www.w3.org/2000/svg">
<g id="file_save">
<mask id="mask0_12_3084" style="mask-type:alpha" maskUnits="userSpaceOnUse" x="0" y="0" width="20" height="20">
<rect id="Bounding box" width="20" height="20" fill="#D9D9D9"/>
</mask>
<g mask="url(#mask0_12_3084)">
<path id="file_save_2" d="M14.9997 17.5001L18.333 14.1667L17.1663 13.0001L15.833 14.3334V10.8542H14.1663V14.3334L12.833 13.0001L11.6663 14.1667L14.9997 17.5001ZM11.6663 20.0001V18.3334H18.333V20.0001H11.6663ZM4.99967 16.6667C4.54134 16.6667 4.14898 16.5036 3.82259 16.1772C3.4962 15.8508 3.33301 15.4584 3.33301 15.0001V3.33341C3.33301 2.87508 3.4962 2.48272 3.82259 2.15633C4.14898 1.82994 4.54134 1.66675 4.99967 1.66675H10.833L15.833 6.66675V9.18758H14.1663V7.50008H9.99967V3.33341H4.99967V15.0001H9.99967V16.6667H4.99967Z" fill="black" fill-opacity="0.75"/>
</g>
</g>
</svg>
