<svg width="12" height="14" viewBox="0 0 12 14" fill="none" xmlns="http://www.w3.org/2000/svg">
<path d="M6.00094 7.00407C6.33266 7.00407 6.61626 6.88595 6.85172 6.64973C7.08719 6.41351 7.20492 6.12954 7.20492 5.79782C7.20492 5.46609 7.08681 5.1825 6.85059 4.94703C6.61437 4.71157 6.3304 4.59383 5.99867 4.59383C5.66695 4.59383 5.38336 4.71194 5.14789 4.94816C4.91242 5.18439 4.79469 5.46836 4.79469 5.80008C4.79469 6.1318 4.9128 6.4154 5.14902 6.65087C5.38525 6.88633 5.66922 7.00407 6.00094 7.00407ZM5.99981 12.1028C7.30407 10.9353 8.30215 9.81542 8.99404 8.74318C9.68592 7.67096 10.0319 6.73185 10.0319 5.92587C10.0319 4.71049 9.64575 3.71134 8.87352 2.92843C8.1013 2.14552 7.1434 1.75406 5.99981 1.75406C4.85622 1.75406 3.89831 2.14552 3.12609 2.92843C2.35387 3.71134 1.96776 4.71049 1.96776 5.92587C1.96776 6.73185 2.3137 7.67096 3.00557 8.74318C3.69746 9.81542 4.69554 10.9353 5.99981 12.1028ZM5.99981 13.4335C4.32204 11.9797 3.06392 10.6267 2.22546 9.37458C1.387 8.12245 0.967773 6.97288 0.967773 5.92587C0.967773 4.38742 1.46542 3.14192 2.46072 2.18935C3.45601 1.23678 4.63571 0.760498 5.99981 0.760498C7.36391 0.760498 8.5436 1.23678 9.53889 2.18935C10.5342 3.14192 11.0318 4.38742 11.0318 5.92587C11.0318 6.97288 10.6126 8.12245 9.77416 9.37458C8.93569 10.6267 7.67757 11.9797 5.99981 13.4335Z" fill="#1C1B1F"/>
</svg>
