<svg width="8" height="10" viewBox="0 0 8 10" fill="none" xmlns="http://www.w3.org/2000/svg">
<path d="M5.99219 3.5C5.99219 3.78125 6.0625 4.03906 6.20312 4.27344C6.34375 4.49219 6.52344 4.67188 6.74219 4.8125C6.97656 4.9375 7.22656 5 7.49219 5V6.00781H4.49219V9.5L3.97656 9.99219L3.48438 9.5V6.00781H0.507812V5C0.773438 5 1.01562 4.9375 1.23438 4.8125C1.46875 4.67188 1.65625 4.49219 1.79688 4.27344C1.9375 4.03906 2.00781 3.78125 2.00781 3.5V0.992188H1.49219C1.36719 0.992188 1.25 0.945312 1.14062 0.851562C1.04688 0.757812 1 0.640625 1 0.5C1 0.359375 1.04688 0.242188 1.14062 0.148438C1.25 0.0546875 1.36719 0.0078125 1.49219 0.0078125H6.50781C6.63281 0.0078125 6.74219 0.0546875 6.83594 0.148438C6.94531 0.242188 7 0.359375 7 0.5C7 0.640625 6.94531 0.757812 6.83594 0.851562C6.74219 0.945312 6.63281 0.992188 6.50781 0.992188H5.99219V3.5Z" fill="#B1B3B5"/>
</svg>
