<svg width="16" height="16" viewBox="0 0 16 16" fill="none" xmlns="http://www.w3.org/2000/svg">
<path d="M11.7617 7.26172V5.75H10.25V7.26172H11.7617ZM8.73828 7.26172V5.75H7.26172V7.26172H8.73828ZM5.75 7.26172V5.75H4.23828V7.26172H5.75ZM14.0117 0.511719C14.4102 0.511719 14.75 0.664062 15.0312 0.96875C15.3359 1.25 15.4883 1.58984 15.4883 1.98828V10.9883C15.4883 11.3867 15.3359 11.7383 15.0312 12.043C14.75 12.3477 14.4102 12.5 14.0117 12.5H3.5L0.511719 15.4883V1.98828C0.511719 1.58984 0.652344 1.25 0.933594 0.96875C1.23828 0.664062 1.58984 0.511719 1.98828 0.511719H14.0117Z" fill="#2DAF22" fill-opacity="0.85"/>
</svg>
