<svg width="18" height="15" viewBox="0 0 18 15" fill="none" xmlns="http://www.w3.org/2000/svg">
<path d="M15.6797 4.14062V2.46094H2.32031V4.14062H15.6797ZM15.6797 12.4609V7.46094H2.32031V12.4609H15.6797ZM15.6797 0.78125C16.1484 0.78125 16.5391 0.950521 16.8516 1.28906C17.1641 1.60156 17.3203 1.99219 17.3203 2.46094V12.4609C17.3203 12.9297 17.1641 13.3333 16.8516 13.6719C16.5391 13.9844 16.1484 14.1406 15.6797 14.1406H2.32031C1.85156 14.1406 1.46094 13.9844 1.14844 13.6719C0.835938 13.3333 0.679688 12.9297 0.679688 12.4609V2.46094C0.679688 1.99219 0.835938 1.60156 1.14844 1.28906C1.46094 0.950521 1.85156 0.78125 2.32031 0.78125H15.6797Z" fill="white"/>
</svg>
