<svg width="16" height="16" viewBox="0 0 16 16" fill="none" xmlns="http://www.w3.org/2000/svg">
<path d="M12.1797 7.64062C11.2422 7.64062 10.3958 7.86198 9.64062 8.30469C8.88542 8.7474 8.28646 9.34635 7.84375 10.1016C7.40104 10.8568 7.17969 11.7031 7.17969 12.6406C7.17969 13.1615 7.25781 13.6693 7.41406 14.1641C7.57031 14.6589 7.79167 15.1016 8.07812 15.4922C7.86979 15.5964 7.64844 15.6875 7.41406 15.7656C7.20573 15.8438 6.98438 15.9089 6.75 15.9609C5.86458 15.7526 5.03125 15.388 4.25 14.8672C3.49479 14.3464 2.83073 13.7214 2.25781 12.9922C1.71094 12.237 1.28125 11.4167 0.96875 10.5312C0.65625 9.64583 0.5 8.73438 0.5 7.79688V3.69531L6.75 0.960938L13 3.69531V7.71875C12.8698 7.69271 12.7266 7.67969 12.5703 7.67969C12.4401 7.65365 12.3099 7.64062 12.1797 7.64062ZM12.1797 9.28125C12.7786 9.28125 13.3255 9.4375 13.8203 9.75C14.3411 10.0365 14.7448 10.4401 15.0312 10.9609C15.3438 11.4557 15.5 12.0156 15.5 12.6406C15.5 13.2396 15.3438 13.7995 15.0312 14.3203C14.7448 14.8151 14.3411 15.2188 13.8203 15.5312C13.3255 15.8177 12.7786 15.9609 12.1797 15.9609C11.5547 15.9609 10.9818 15.8177 10.4609 15.5312C9.96615 15.2188 9.5625 14.8151 9.25 14.3203C8.96354 13.7995 8.82031 13.2396 8.82031 12.6406C8.82031 12.0156 8.96354 11.4557 9.25 10.9609C9.5625 10.4401 9.96615 10.0365 10.4609 9.75C10.9818 9.4375 11.5547 9.28125 12.1797 9.28125ZM12.1797 10.4531C11.9193 10.4531 11.6979 10.5443 11.5156 10.7266C11.3333 10.9089 11.2422 11.1302 11.2422 11.3906C11.2422 11.625 11.3333 11.8464 11.5156 12.0547C11.6979 12.237 11.9193 12.3281 12.1797 12.3281C12.4141 12.3281 12.6224 12.237 12.8047 12.0547C13.013 11.8464 13.1172 11.625 13.1172 11.3906C13.1172 11.1302 13.026 10.9089 12.8438 10.7266C12.6615 10.5443 12.4401 10.4531 12.1797 10.4531ZM12.1797 14.9062C12.5703 14.9062 12.9219 14.8281 13.2344 14.6719C13.5469 14.4896 13.8073 14.2422 14.0156 13.9297C14.0156 13.7474 13.8984 13.5911 13.6641 13.4609C13.4557 13.3047 13.1953 13.2005 12.8828 13.1484C12.5964 13.0703 12.362 13.0312 12.1797 13.0312C11.9714 13.0312 11.724 13.0703 11.4375 13.1484C11.151 13.2005 10.8906 13.3047 10.6562 13.4609C10.4219 13.5911 10.3047 13.7474 10.3047 13.9297C10.513 14.2422 10.7734 14.4896 11.0859 14.6719C11.4245 14.8281 11.7891 14.9062 12.1797 14.9062Z" fill="white"/>
</svg>
