<svg width="24" height="25" viewBox="0 0 24 25" fill="none" xmlns="http://www.w3.org/2000/svg">
<path d="M19.4531 13.4451C19.4531 13.117 19.5 12.7889 19.5 12.4607C19.5 12.1326 19.4531 11.8045 19.4531 11.4764L21.5625 9.83574C21.75 9.69512 21.7969 9.41387 21.6562 9.17949L19.6406 5.71074C19.5469 5.57012 19.4062 5.47637 19.2188 5.47637C19.1719 5.47637 19.0781 5.47637 19.0312 5.52324L16.5469 6.50762C16.0312 6.13262 15.4688 5.75762 14.8594 5.52324L14.4844 2.89824C14.4375 2.66387 14.25 2.47637 14.0156 2.47637H9.98438C9.75 2.47637 9.5625 2.66387 9.51562 2.89824L9.14062 5.52324C8.53125 5.75762 7.96875 6.13262 7.45312 6.50762L4.96875 5.52324C4.875 5.47637 4.82812 5.47637 4.78125 5.47637C4.59375 5.47637 4.45312 5.57012 4.35938 5.71074L2.34375 9.17949C2.20312 9.41387 2.25 9.69512 2.4375 9.83574L4.54688 11.4764C4.54688 11.8045 4.5 12.1326 4.5 12.4607C4.5 12.7889 4.54688 13.117 4.54688 13.4451L2.4375 15.0857C2.25 15.2264 2.20312 15.5076 2.34375 15.742L4.35938 19.2107C4.45312 19.3514 4.59375 19.4451 4.78125 19.4451C4.82812 19.4451 4.92188 19.4451 4.96875 19.3982L7.45312 18.4139C7.96875 18.7889 8.53125 19.1639 9.14062 19.3982L9.51562 22.0232C9.5625 22.2576 9.75 22.4451 9.98438 22.4451H14.0156C14.25 22.4451 14.4375 22.2576 14.4844 22.0232L14.8594 19.3982C15.4688 19.1639 16.0312 18.7889 16.5469 18.4139L19.0312 19.3982C19.125 19.4451 19.1719 19.4451 19.2188 19.4451C19.4062 19.4451 19.5469 19.3514 19.6406 19.2107L21.6562 15.742C21.7969 15.5076 21.75 15.2264 21.5625 15.0857L19.4531 13.4451ZM17.4375 11.7107C17.4844 12.0389 17.4844 12.2732 17.4844 12.4607C17.4844 12.6482 17.4844 12.8826 17.4375 13.2107L17.2969 14.3357L18.1875 15.0389L19.2656 15.8826L18.5625 17.0545L17.2969 16.5389L16.2656 16.1639L15.375 16.8201C14.9531 17.1482 14.5312 17.3826 14.1094 17.5701L13.0781 17.992L12.8906 19.117L12.7031 20.4764H11.2969L11.1094 19.117L10.9688 17.992L9.89062 17.5701C9.46875 17.3826 9.04688 17.1482 8.67188 16.8201L7.73438 16.1639L6.70312 16.5857L5.4375 17.1014L4.73438 15.8826L5.8125 15.0389L6.70312 14.3357L6.5625 13.2107C6.51562 12.8826 6.51562 12.6482 6.51562 12.4607C6.51562 12.2732 6.51562 12.0389 6.5625 11.7107L6.70312 10.5857L5.8125 9.88262L4.73438 9.03887L5.4375 7.86699L6.70312 8.38262L7.73438 8.75762L8.625 8.10137C9.04688 7.77324 9.46875 7.53887 9.89062 7.35137L10.9219 6.92949L11.1094 5.80449L11.2969 4.44512H12.7031L12.8906 5.80449L13.0312 6.92949L14.1094 7.35137C14.5312 7.53887 14.9531 7.77324 15.3281 8.10137L16.2188 8.75762L17.2969 8.33574L18.5625 7.82012L19.2656 9.03887L18.1875 9.88262L17.2969 10.5857L17.4375 11.7107ZM12 8.47637C9.79688 8.47637 8.01562 10.2576 8.01562 12.4607C8.01562 14.6639 9.79688 16.4451 12 16.4451C14.2031 16.4451 15.9844 14.6639 15.9844 12.4607C15.9844 10.2576 14.2031 8.47637 12 8.47637ZM12 14.4764C10.9219 14.4764 9.98438 13.5389 9.98438 12.4607C9.98438 11.3826 10.9219 10.4451 12 10.4451C13.0781 10.4451 14.0156 11.3826 14.0156 12.4607C14.0156 13.5389 13.0781 14.4764 12 14.4764Z" fill="white"/>
</svg>
