<svg width="14" height="15" viewBox="0 0 14 15" fill="none" xmlns="http://www.w3.org/2000/svg">
<path d="M4 11.2109C4.2125 11.2109 4.39062 11.1391 4.53438 10.9953C4.67812 10.8516 4.75 10.6734 4.75 10.4609C4.75 10.2484 4.67812 10.0703 4.53438 9.92656C4.39062 9.78281 4.2125 9.71094 4 9.71094C3.7875 9.71094 3.60938 9.78281 3.46562 9.92656C3.32187 10.0703 3.25 10.2484 3.25 10.4609C3.25 10.6734 3.32187 10.8516 3.46562 10.9953C3.60938 11.1391 3.7875 11.2109 4 11.2109ZM4 8.21094C4.2125 8.21094 4.39062 8.13906 4.53438 7.99531C4.67812 7.85156 4.75 7.67344 4.75 7.46094C4.75 7.24844 4.67812 7.07031 4.53438 6.92656C4.39062 6.78281 4.2125 6.71094 4 6.71094C3.7875 6.71094 3.60938 6.78281 3.46562 6.92656C3.32187 7.07031 3.25 7.24844 3.25 7.46094C3.25 7.67344 3.32187 7.85156 3.46562 7.99531C3.60938 8.13906 3.7875 8.21094 4 8.21094ZM4 5.21094C4.2125 5.21094 4.39062 5.13906 4.53438 4.99531C4.67812 4.85156 4.75 4.67344 4.75 4.46094C4.75 4.24844 4.67812 4.07031 4.53438 3.92656C4.39062 3.78281 4.2125 3.71094 4 3.71094C3.7875 3.71094 3.60938 3.78281 3.46562 3.92656C3.32187 4.07031 3.25 4.24844 3.25 4.46094C3.25 4.67344 3.32187 4.85156 3.46562 4.99531C3.60938 5.13906 3.7875 5.21094 4 5.21094ZM6.25 11.2109H10.75V9.71094H6.25V11.2109ZM6.25 8.21094H10.75V6.71094H6.25V8.21094ZM6.25 5.21094H10.75V3.71094H6.25V5.21094ZM1.75 14.2109C1.3375 14.2109 0.984375 14.0641 0.690625 13.7703C0.396875 13.4766 0.25 13.1234 0.25 12.7109V2.21094C0.25 1.79844 0.396875 1.44531 0.690625 1.15156C0.984375 0.857813 1.3375 0.710938 1.75 0.710938H12.25C12.6625 0.710938 13.0156 0.857813 13.3094 1.15156C13.6031 1.44531 13.75 1.79844 13.75 2.21094V12.7109C13.75 13.1234 13.6031 13.4766 13.3094 13.7703C13.0156 14.0641 12.6625 14.2109 12.25 14.2109H1.75ZM1.75 12.7109H12.25V2.21094H1.75V12.7109Z" fill="white"/>
</svg>
