<svg width="24" height="25" viewBox="0 0 24 25" fill="none" xmlns="http://www.w3.org/2000/svg">
<mask id="mask0_3243_3252" style="mask-type:alpha" maskUnits="userSpaceOnUse" x="0" y="0" width="24" height="25">
<rect y="0.460743" width="24" height="24" fill="#D9D9D9"/>
</mask>
<g mask="url(#mask0_3243_3252)">
<path d="M19.4846 20.6149L13.223 14.3534C12.723 14.779 12.148 15.1085 11.498 15.3418C10.848 15.5752 10.1948 15.6918 9.53839 15.6918C7.93673 15.6918 6.58118 15.1374 5.47177 14.0286C4.36233 12.9198 3.80762 11.565 3.80762 9.96418C3.80762 8.36338 4.36203 7.00752 5.47084 5.89662C6.57966 4.78572 7.93447 4.23027 9.53527 4.23027C11.1361 4.23027 12.4919 4.78498 13.6028 5.8944C14.7137 7.00382 15.2692 8.35937 15.2692 9.96105C15.2692 10.6559 15.1461 11.3284 14.8999 11.9784C14.6538 12.6284 14.3307 13.1841 13.9307 13.6457L20.1923 19.9072L19.4846 20.6149ZM9.53839 14.6918C10.8653 14.6918 11.9855 14.2351 12.899 13.3216C13.8124 12.4082 14.2692 11.288 14.2692 9.96105C14.2692 8.63413 13.8124 7.51394 12.899 6.60048C11.9855 5.68701 10.8653 5.23027 9.53839 5.23027C8.21147 5.23027 7.09128 5.68701 6.17782 6.60048C5.26437 7.51394 4.80764 8.63413 4.80764 9.96105C4.80764 11.288 5.26437 12.4082 6.17782 13.3216C7.09128 14.2351 8.21147 14.6918 9.53839 14.6918Z" fill="white"/>
</g>
</svg>
