<svg width="18" height="17" viewBox="0 0 18 17" fill="none" xmlns="http://www.w3.org/2000/svg">
<path d="M16.4846 16.6149L10.223 10.3534C9.72302 10.779 9.14802 11.1085 8.49802 11.3418C7.84802 11.5752 7.19481 11.6918 6.53839 11.6918C4.93673 11.6918 3.58118 11.1374 2.47177 10.0286C1.36233 8.91978 0.807617 7.56498 0.807617 5.96418C0.807617 4.36338 1.36203 3.00752 2.47084 1.89662C3.57966 0.785724 4.93447 0.230274 6.53527 0.230274C8.13608 0.230274 9.49193 0.784983 10.6028 1.8944C11.7137 3.00382 12.2692 4.35937 12.2692 5.96105C12.2692 6.65592 12.1461 7.32835 11.8999 7.97835C11.6538 8.62835 11.3307 9.18413 10.9307 9.64568L17.1923 15.9072L16.4846 16.6149ZM6.53839 10.6918C7.86532 10.6918 8.98552 10.2351 9.89897 9.32163C10.8124 8.40816 11.2692 7.28797 11.2692 5.96105C11.2692 4.63413 10.8124 3.51394 9.89897 2.60048C8.98552 1.68701 7.86532 1.23027 6.53839 1.23027C5.21147 1.23027 4.09128 1.68701 3.17782 2.60048C2.26437 3.51394 1.80764 4.63413 1.80764 5.96105C1.80764 7.28797 2.26437 8.40816 3.17782 9.32163C4.09128 10.2351 5.21147 10.6918 6.53839 10.6918Z" fill="white"/>
</svg>
