<svg width="24" height="25" viewBox="0 0 24 25" fill="none" xmlns="http://www.w3.org/2000/svg">
<path d="M11.0156 18.4607H12.9844V16.4451H11.0156V18.4607ZM12 2.47637C6.46875 2.47637 2.01562 6.92949 2.01562 12.4607C2.01562 17.992 6.46875 22.4451 12 22.4451C17.5312 22.4451 21.9844 17.992 21.9844 12.4607C21.9844 6.92949 17.5312 2.47637 12 2.47637ZM12 20.4764C7.59375 20.4764 3.98438 16.867 3.98438 12.4607C3.98438 8.05449 7.59375 4.44512 12 4.44512C16.4062 4.44512 20.0156 8.05449 20.0156 12.4607C20.0156 16.867 16.4062 20.4764 12 20.4764ZM12 6.46074C9.79688 6.46074 8.01562 8.24199 8.01562 10.4451H9.98438C9.98438 9.36699 10.9219 8.47637 12 8.47637C13.0781 8.47637 14.0156 9.36699 14.0156 10.4451C14.0156 12.4607 11.0156 12.2264 11.0156 15.4607H12.9844C12.9844 13.2107 15.9844 12.9764 15.9844 10.4451C15.9844 8.24199 14.2031 6.46074 12 6.46074Z" fill="white"/>
</svg>
