<svg width="48" height="24" viewBox="0 0 48 24" fill="none" xmlns="http://www.w3.org/2000/svg">
<path d="M18.9844 20.0156V9H5.01562V20.0156H18.9844ZM18.9844 3.98438C19.5156 3.98438 19.9844 4.1875 20.3906 4.59375C20.7969 5 21 5.46875 21 6V20.0156C21 20.5469 20.7969 21.0156 20.3906 21.4219C19.9844 21.7969 19.5156 21.9844 18.9844 21.9844H5.01562C4.45312 21.9844 3.96875 21.7969 3.5625 21.4219C3.1875 21.0469 3 20.5781 3 20.0156V6C3 5.46875 3.1875 5 3.5625 4.59375C3.96875 4.1875 4.45312 3.98438 5.01562 3.98438H6V2.01562H8.01562V3.98438H15.9844V2.01562H18V3.98438H18.9844ZM17.0156 11.0156V12.9844H15V11.0156H17.0156ZM12.9844 11.0156V12.9844H11.0156V11.0156H12.9844ZM9 11.0156V12.9844H6.98438V11.0156H9Z" fill="#555658"/>
<path d="M33.6797 10.0039L31 12.6836L28.3203 10.0039L27.5 10.8242L31 14.3242L34.5 10.8242L33.6797 10.0039Z" fill="#555658"/>
</svg>
