<svg width="25" height="25" viewBox="0 0 25 25" fill="none" xmlns="http://www.w3.org/2000/svg">
<g id="cloud_upload">
<mask id="mask0_3680_3459" style="mask-type:alpha" maskUnits="userSpaceOnUse" x="0" y="0" width="25" height="25">
<rect id="Bounding box" x="0.948364" y="0.5" width="24" height="24" fill="#D9D9D9"/>
</mask>
<g mask="url(#mask0_3680_3459)">
<path id="cloud_upload_2" d="M11.9484 21H7.44836C5.9317 21 4.63586 20.475 3.56086 19.425C2.48586 18.375 1.94836 17.0917 1.94836 15.575C1.94836 14.275 2.34003 13.1167 3.12336 12.1C3.9067 11.0833 4.9317 10.4333 6.19836 10.15C6.61503 8.61667 7.44836 7.375 8.69836 6.425C9.94836 5.475 11.365 5 12.9484 5C14.8984 5 16.5525 5.67917 17.9109 7.0375C19.2692 8.39583 19.9484 10.05 19.9484 12C21.0984 12.1333 22.0525 12.6292 22.8109 13.4875C23.5692 14.3458 23.9484 15.35 23.9484 16.5C23.9484 17.75 23.5109 18.8125 22.6359 19.6875C21.7609 20.5625 20.6984 21 19.4484 21H13.9484V13.85L15.5484 15.4L16.9484 14L12.9484 10L8.94836 14L10.3484 15.4L11.9484 13.85V21Z" fill="#4CBB43"/>
</g>
</g>
</svg>
