<svg width="14" height="12" viewBox="0 0 14 12" fill="none" xmlns="http://www.w3.org/2000/svg">
<path d="M3 3.34375C3 3.82292 3.11458 4.27083 3.34375 4.6875C3.59375 5.08333 3.91667 5.40625 4.3125 5.65625C4.72917 5.88542 5.17708 6 5.65625 6C6.15625 6 6.60417 5.88542 7 5.65625C7.41667 5.40625 7.73958 5.08333 7.96875 4.6875C8.21875 4.27083 8.34375 3.82292 8.34375 3.34375C8.34375 2.84375 8.21875 2.39583 7.96875 2C7.73958 1.58333 7.41667 1.26042 7 1.03125C6.60417 0.78125 6.15625 0.65625 5.65625 0.65625C5.17708 0.65625 4.72917 0.78125 4.3125 1.03125C3.91667 1.26042 3.59375 1.58333 3.34375 2C3.11458 2.39583 3 2.84375 3 3.34375ZM6.125 6.6875C5.97917 6.97917 5.86458 7.29167 5.78125 7.625C5.69792 7.95833 5.65625 8.30208 5.65625 8.65625C5.65625 9.15625 5.72917 9.63542 5.875 10.0938C6.04167 10.5521 6.25 10.9688 6.5 11.3438H0.34375V9.5625C0.34375 9.22917 0.416667 8.90625 0.5625 8.59375C0.729167 8.28125 0.958333 8.04167 1.25 7.875C1.89583 7.5 2.59375 7.20833 3.34375 7C4.09375 6.77083 4.86458 6.65625 5.65625 6.65625C5.73958 6.65625 5.8125 6.66667 5.875 6.6875C5.95833 6.6875 6.04167 6.6875 6.125 6.6875ZM12.8438 8.65625C12.8438 8.73958 12.8333 8.8125 12.8125 8.875C12.8125 8.9375 12.8021 9.01042 12.7812 9.09375L13.5625 9.75L12.875 10.9062L11.9062 10.5938C11.6979 10.7604 11.4583 10.8958 11.1875 11L11 12H9.65625L9.46875 11C9.19792 10.8958 8.95833 10.7604 8.75 10.5938L7.78125 10.9062L7.125 9.75L7.875 9.09375C7.85417 9.01042 7.84375 8.9375 7.84375 8.875C7.84375 8.8125 7.84375 8.73958 7.84375 8.65625C7.84375 8.59375 7.84375 8.53125 7.84375 8.46875C7.84375 8.38542 7.85417 8.3125 7.875 8.25L7.125 7.5625L7.78125 6.40625L8.75 6.75C8.95833 6.5625 9.19792 6.41667 9.46875 6.3125L9.65625 5.34375H11L11.1875 6.3125C11.4583 6.41667 11.6979 6.5625 11.9062 6.75L12.875 6.40625L13.5625 7.5625L12.7812 8.25C12.8021 8.3125 12.8125 8.38542 12.8125 8.46875C12.8333 8.53125 12.8438 8.59375 12.8438 8.65625ZM10.3438 10C10.6979 10 11 9.875 11.25 9.625C11.5208 9.35417 11.6562 9.03125 11.6562 8.65625C11.6562 8.30208 11.5208 8 11.25 7.75C11 7.47917 10.6979 7.34375 10.3438 7.34375C9.96875 7.34375 9.64583 7.47917 9.375 7.75C9.125 8 9 8.30208 9 8.65625C9 9.03125 9.125 9.35417 9.375 9.625C9.64583 9.875 9.96875 10 10.3438 10Z" fill="#464648"/>
</svg>
