<svg width="20" height="20" viewBox="0 0 20 20" fill="none" xmlns="http://www.w3.org/2000/svg">
<mask id="mask0_529_66537" style="mask-type:alpha" maskUnits="userSpaceOnUse" x="0" y="0" width="20" height="20">
<rect width="20" height="20" fill="#D9D9D9"/>
</mask>
<g mask="url(#mask0_529_66537)">
<path d="M0.833008 19.168L2.45801 13.5846C2.19412 13.0152 1.9962 12.4319 1.86426 11.8346C1.73231 11.2374 1.66634 10.6263 1.66634 10.0013C1.66634 8.84852 1.88509 7.76519 2.32259 6.7513C2.76009 5.73741 3.35384 4.85547 4.10384 4.10547C4.85384 3.35547 5.73579 2.76172 6.74967 2.32422C7.76356 1.88672 8.8469 1.66797 9.99967 1.66797C11.1525 1.66797 12.2358 1.88672 13.2497 2.32422C14.2636 2.76172 15.1455 3.35547 15.8955 4.10547C16.6455 4.85547 17.2393 5.73741 17.6768 6.7513C18.1143 7.76519 18.333 8.84852 18.333 10.0013C18.333 11.1541 18.1143 12.2374 17.6768 13.2513C17.2393 14.2652 16.6455 15.1471 15.8955 15.8971C15.1455 16.6471 14.2636 17.2409 13.2497 17.6784C12.2358 18.1159 11.1525 18.3346 9.99967 18.3346C9.37467 18.3346 8.76356 18.2687 8.16634 18.1367C7.56912 18.0048 6.98579 17.8069 6.41634 17.543L0.833008 19.168ZM9.16634 13.3346H10.833V10.8346H13.333V9.16797H10.833V6.66797H9.16634V9.16797H6.66634V10.8346H9.16634V13.3346Z" fill="#5975D6"/>
</g>
</svg>
