<svg width="12" height="14" viewBox="0 0 12 14" fill="none" xmlns="http://www.w3.org/2000/svg">
<path d="M11.7726 4.57422V9.82422C11.7726 10.1523 11.6541 10.4349 11.4171 10.6719C11.1984 10.8906 10.934 11 10.6241 11H2.44836L0.124146 13.3242V2.82422C0.124146 2.51432 0.233521 2.25 0.452271 2.03125C0.68925 1.79427 0.962687 1.67578 1.27258 1.67578H7.17883C7.1606 1.76693 7.14237 1.86719 7.12415 1.97656C7.12415 2.06771 7.12415 2.15885 7.12415 2.25C7.12415 2.77865 7.25175 3.27083 7.50696 3.72656C7.76217 4.16406 8.10852 4.51953 8.54602 4.79297C9.00175 5.04818 9.49394 5.17578 10.0226 5.17578C10.3507 5.17578 10.6606 5.12109 10.9523 5.01172C11.2622 4.90234 11.5356 4.75651 11.7726 4.57422ZM8.27258 2.25C8.27258 2.57812 8.35461 2.87891 8.51868 3.15234C8.68274 3.40755 8.89237 3.61719 9.14758 3.78125C9.42102 3.92708 9.71269 4 10.0226 4C10.3507 4 10.6424 3.92708 10.8976 3.78125C11.171 3.61719 11.3807 3.40755 11.5265 3.15234C11.6906 2.87891 11.7726 2.57812 11.7726 2.25C11.7726 1.92188 11.6906 1.63021 11.5265 1.375C11.3807 1.10156 11.171 0.891927 10.8976 0.746094C10.6424 0.582031 10.3507 0.5 10.0226 0.5C9.71269 0.5 9.42102 0.582031 9.14758 0.746094C8.89237 0.891927 8.68274 1.10156 8.51868 1.375C8.35461 1.63021 8.27258 1.92188 8.27258 2.25Z" fill="#3C5CCF" fill-opacity="0.85"/>
</svg>
