<svg width="15" height="16" viewBox="0 0 15 16" fill="none" xmlns="http://www.w3.org/2000/svg">
<path d="M2.77344 8.58594C3.5026 9.3151 4.38802 9.67969 5.42969 9.67969C6.47135 9.67969 7.35677 9.3151 8.08594 8.58594C8.8151 7.85677 9.17969 6.97135 9.17969 5.92969C9.17969 4.88802 8.8151 4.0026 8.08594 3.27344C7.35677 2.54427 6.47135 2.17969 5.42969 2.17969C4.38802 2.17969 3.5026 2.54427 2.77344 3.27344C2.04427 4.0026 1.67969 4.88802 1.67969 5.92969C1.67969 6.97135 2.04427 7.85677 2.77344 8.58594ZM10.4297 9.67969L14.5703 13.8203L13.3203 15.0703L9.17969 10.9297V10.2656L8.94531 10.0312C7.95573 10.8906 6.78385 11.3203 5.42969 11.3203C3.91927 11.3203 2.63021 10.7995 1.5625 9.75781C0.520833 8.71615 0 7.4401 0 5.92969C0 4.41927 0.520833 3.14323 1.5625 2.10156C2.63021 1.03385 3.91927 0.5 5.42969 0.5C6.9401 0.5 8.21615 1.03385 9.25781 2.10156C10.2995 3.14323 10.8203 4.41927 10.8203 5.92969C10.8203 6.47656 10.6901 7.10156 10.4297 7.80469C10.1693 8.48177 9.86979 9.02865 9.53125 9.44531L9.76562 9.67969H10.4297Z" fill="black" fill-opacity="0.75"/>
</svg>
