<svg width="14" height="14" viewBox="0 0 14 14" fill="none" xmlns="http://www.w3.org/2000/svg">
<path d="M7.38672 4.01172V7.17578L9.98828 8.75781L9.46094 9.67188L6.26172 7.73828V4.01172H7.38672ZM13.75 5.59375H8.65234L10.7266 3.48438C9.69531 2.45313 8.45312 1.9375 7 1.9375C5.57031 1.91406 4.33984 2.40625 3.30859 3.41406C2.88672 3.83594 2.52344 4.41016 2.21875 5.13672C1.91406 5.83984 1.76172 6.48438 1.76172 7.07031C1.76172 7.65625 1.91406 8.3125 2.21875 9.03906C2.52344 9.74219 2.88672 10.3047 3.30859 10.7266C3.73047 11.1484 4.30469 11.5117 5.03125 11.8164C5.75781 12.1211 6.41406 12.2734 7 12.2734C7.58594 12.2734 8.24219 12.1211 8.96875 11.8164C9.71875 11.5117 10.3047 11.1484 10.7266 10.7266C11.7344 9.71875 12.2383 8.5 12.2383 7.07031H13.75C13.75 8.92188 13.0938 10.4922 11.7812 11.7812C10.4688 13.0938 8.875 13.75 7 13.75C5.125 13.75 3.53125 13.0938 2.21875 11.7812C0.90625 10.4922 0.25 8.93359 0.25 7.10547C0.25 5.25391 0.90625 3.67187 2.21875 2.35938C2.75781 1.82031 3.48438 1.36328 4.39844 0.988281C5.33594 0.589844 6.19141 0.390625 6.96484 0.390625C7.73828 0.390625 8.58203 0.589844 9.49609 0.988281C10.4336 1.36328 11.1719 1.82031 11.7109 2.35938L13.75 0.25V5.59375Z" fill="#CE7F35" fill-opacity="0.85"/>
</svg>
