<svg width="19" height="17" viewBox="0 0 19 17" fill="none" xmlns="http://www.w3.org/2000/svg">
<path d="M7.32031 9.28125C7.11198 9.28125 6.91667 9.3724 6.73438 9.55469C6.57812 9.71094 6.5 9.90625 6.5 10.1406C6.5 10.349 6.57812 10.5443 6.73438 10.7266C6.91667 10.8828 7.11198 10.9609 7.32031 10.9609C7.55469 10.9609 7.75 10.8828 7.90625 10.7266C8.08854 10.5443 8.17969 10.349 8.17969 10.1406C8.17969 9.90625 8.08854 9.71094 7.90625 9.55469C7.75 9.3724 7.55469 9.28125 7.32031 9.28125ZM7.32031 7.64062C8.02344 7.64062 8.60938 7.88802 9.07812 8.38281C9.57292 8.85156 9.82031 9.4375 9.82031 10.1406C9.82031 10.8177 9.57292 11.4036 9.07812 11.8984C8.60938 12.3932 8.02344 12.6406 7.32031 12.6406C6.64323 12.6406 6.05729 12.3932 5.5625 11.8984C5.06771 11.4036 4.82031 10.8177 4.82031 10.1406C4.82031 9.4375 5.06771 8.85156 5.5625 8.38281C6.05729 7.88802 6.64323 7.64062 7.32031 7.64062ZM14.4297 5.96094L13.4922 3.96875L11.5 3.03125L13.4922 2.13281L14.4297 0.140625L15.3281 2.13281L17.3203 3.03125L15.3281 3.96875L14.4297 5.96094ZM16.7344 9.04688L18.1797 9.71094L16.7344 10.375L16.0703 11.7812L15.4453 10.375L14 9.71094L15.4453 9.04688L16.0703 7.64062L16.7344 9.04688ZM12.5547 10.1406C12.5547 10.2708 12.5417 10.362 12.5156 10.4141L14.1562 11.6641L12.0859 15.2578L10.2109 14.4766C9.89844 14.6589 9.71615 14.763 9.66406 14.7891L9.42969 16.7812H5.25L5.01562 14.7891C4.83333 14.7109 4.65104 14.6068 4.46875 14.4766L2.59375 15.2578L0.523438 11.6641L2.125 10.4531V10.1406V9.82812L0.523438 8.57812L2.59375 4.98438L4.46875 5.76562C4.57292 5.71354 4.75521 5.60938 5.01562 5.45312L5.25 3.46094H9.42969L9.66406 5.45312C9.71615 5.47917 9.79427 5.53125 9.89844 5.60938C10.0286 5.6875 10.1328 5.73958 10.2109 5.76562L12.0859 4.98438L14.1562 8.57812L12.5156 9.82812C12.5417 9.88021 12.5547 9.98438 12.5547 10.1406ZM11.3438 13.1484L11.9688 12.0938L10.7188 11.1562C10.8229 10.8438 10.875 10.4922 10.875 10.1016C10.875 9.73698 10.8229 9.39844 10.7188 9.08594L11.9688 8.14844L11.3438 7.09375L9.89844 7.71875C9.42969 7.17188 8.84375 6.82031 8.14062 6.66406L7.94531 5.14062H6.73438L6.53906 6.70312C5.8099 6.85938 5.21094 7.19792 4.74219 7.71875L3.33594 7.09375L2.71094 8.1875L3.96094 9.125C3.85677 9.41146 3.80469 9.75 3.80469 10.1406C3.80469 10.5312 3.85677 10.8698 3.96094 11.1562L2.71094 12.0938L3.33594 13.1484L4.74219 12.5625C5.21094 13.0833 5.8099 13.4219 6.53906 13.5781L6.73438 15.1406H7.94531L8.14062 13.5781C8.86979 13.4219 9.45573 13.0833 9.89844 12.5625L11.3438 13.1484Z" fill="white"/>
</svg>
