<svg width="24" height="25" viewBox="0 0 24 25" fill="none" xmlns="http://www.w3.org/2000/svg">
<path d="M12 22.4451C13.0781 22.4451 14.0156 21.5545 14.0156 20.4764H9.98438C9.98438 21.5545 10.9219 22.4451 12 22.4451ZM18 16.4451V11.4764C18 8.38262 16.3594 5.80449 13.5 5.14824V4.44512C13.5 3.64824 12.8438 2.94512 12 2.94512C11.1562 2.94512 10.5 3.64824 10.5 4.44512V5.14824C7.64062 5.80449 6 8.38262 6 11.4764V16.4451L3.98438 18.4607V19.4451H20.0156V18.4607L18 16.4451ZM15.9844 17.4764H8.01562V11.4764C8.01562 8.99199 9.51562 6.97637 12 6.97637C14.4844 6.97637 15.9844 8.99199 15.9844 11.4764V17.4764Z" fill="white"/>
</svg>
