<?xml version="1.0" encoding="UTF-8"?>
<!-- Generator: visioncortex VTracer 0.6.3 -->
<svg version="1.1" xmlns="http://www.w3.org/2000/svg" width="180" height="114">
<path d="M0 0 C59.4 0 118.8 0 180 0 C180 37.62 180 75.24 180 114 C120.6 114 61.2 114 0 114 C0 76.38 0 38.76 0 0 Z " fill="#FEFDFD" transform="translate(0,0)"/>
<path d="M0 0 C59.4 0 118.8 0 180 0 C180 17.49 180 34.98 180 53 C171.46 48.73 163.25 44.54 155.12 39.62 C153.24 38.5 151.35 37.37 149.47 36.25 C148.55 35.7 147.64 35.15 146.69 34.59 C140.52 30.95 134.26 27.48 128 24 C128 18.72 128 13.44 128 8 C124.37 8 120.74 8 117 8 C117 10.97 117 13.94 117 17 C116.26 16.59 115.53 16.18 114.77 15.76 C113.79 15.22 112.82 14.68 111.81 14.12 C110.85 13.59 109.89 13.06 108.89 12.51 C107.94 12.01 106.98 11.51 106 11 C105.24 10.58 104.47 10.16 103.68 9.73 C100.96 8.71 100.96 8.71 98.21 10.01 C97.2 10.59 96.2 11.17 95.17 11.77 C94.05 12.41 92.93 13.05 91.77 13.7 C91.19 14.05 90.6 14.39 90 14.75 C88.18 15.82 86.35 16.86 84.52 17.89 C79.27 20.87 74.08 23.91 69.02 27.18 C59.43 33.29 59.43 33.29 54.99 32.39 C52.31 31 52.31 31 50.11 29.31 C48.08 27.75 48.08 27.75 45.65 28.27 C42.94 29.02 40.9 29.99 38.48 31.41 C37.63 31.9 36.78 32.39 35.9 32.9 C34.56 33.69 34.56 33.69 33.19 34.5 C31.3 35.59 29.42 36.69 27.54 37.78 C26.61 38.32 25.67 38.86 24.71 39.43 C20.85 41.67 16.96 43.87 13.06 46.06 C12.12 46.6 12.12 46.6 11.15 47.14 C7.48 49.21 3.78 51.11 0 53 C0 35.51 0 18.02 0 0 Z " fill="#FEFEFE" transform="translate(0,0)"/>
<path d="M0 0 C2.7 1.95 2.7 1.95 4.88 3.88 C5.86 4.54 6.86 5.2 7.88 5.88 C8.2 3.23 8.53 0.59 8.88 -2.12 C12.5 -2.12 16.14 -2.12 19.88 -2.12 C19.88 3.16 19.88 8.44 19.88 13.88 C21.85 14.54 23.84 15.2 25.88 15.88 C27.78 16.83 27.78 16.83 29.44 17.84 C30.08 18.22 30.72 18.6 31.38 19 C32.06 19.41 32.74 19.82 33.44 20.25 C34.94 21.15 36.43 22.04 37.93 22.94 C38.73 23.41 39.52 23.89 40.34 24.38 C44.86 27.05 49.43 29.65 54 32.25 C54.88 32.75 55.75 33.25 56.65 33.76 C58.3 34.7 59.95 35.64 61.6 36.58 C64.7 38.34 67.79 40.11 70.88 41.88 C70.88 42.2 70.88 42.53 70.88 42.88 C60.34 44.96 52.87 39.55 44.26 34.32 C41.22 32.48 38.14 30.71 35.05 28.95 C28.84 25.38 22.66 21.75 16.48 18.14 C14.85 17.18 14.85 17.18 13.19 16.21 C11.06 14.97 8.93 13.72 6.79 12.47 C5.82 11.9 4.85 11.33 3.85 10.75 C2.98 10.24 2.12 9.73 1.23 9.21 C0.45 8.77 -0.32 8.33 -1.12 7.88 C-2.11 7.26 -2.11 7.26 -3.12 6.63 C-5.9 5.58 -7.3 5.98 -10.12 6.88 C-12.4 8 -14.58 9.15 -16.78 10.4 C-17.41 10.75 -18.03 11.1 -18.67 11.46 C-20.66 12.57 -22.64 13.69 -24.62 14.81 C-26.61 15.93 -28.59 17.04 -30.58 18.15 C-31.81 18.84 -33.04 19.54 -34.27 20.23 C-37.48 22.04 -40.67 23.6 -44.12 24.88 C-44.12 25.53 -44.12 26.2 -44.12 26.88 C-43.32 27.1 -42.52 27.33 -41.69 27.57 C-37.21 29.21 -33.21 31.41 -29.06 33.75 C-28.27 34.18 -27.48 34.62 -26.67 35.07 C-22.52 37.38 -18.73 39.75 -15.12 42.88 C-24.42 43.89 -30.26 41.42 -38.19 36.75 C-39.2 36.18 -40.21 35.61 -41.25 35.02 C-45.2 32.79 -49.11 30.55 -52.89 28.04 C-53.75 27.47 -54.61 26.9 -55.5 26.32 C-56.62 25.54 -56.62 25.54 -57.77 24.75 C-61.17 23.49 -62.86 24.45 -66.12 25.88 C-67.94 26.79 -69.73 27.76 -71.5 28.77 C-72.48 29.34 -73.47 29.9 -74.49 30.48 C-76.01 31.35 -76.01 31.35 -77.56 32.25 C-78.57 32.83 -79.59 33.41 -80.63 34 C-81.62 34.56 -82.6 35.13 -83.62 35.71 C-85.05 36.53 -85.05 36.53 -86.51 37.36 C-88.09 38.27 -89.65 39.21 -91.2 40.17 C-94.98 42.51 -97.62 43.34 -102.06 43.12 C-103.02 43.09 -103.98 43.05 -104.96 43.02 C-105.68 42.97 -106.39 42.92 -107.12 42.88 C-102.78 39.09 -98.05 36.51 -93 33.81 C-87.53 30.86 -82.09 27.89 -76.76 24.68 C-75.91 24.16 -75.06 23.65 -74.18 23.13 C-72.55 22.14 -70.92 21.15 -69.31 20.14 C-63.89 16.89 -63.89 16.89 -60.59 16.83 C-58.13 17.87 -58.13 17.87 -56.4 19.03 C-54.28 20.36 -52.56 21.27 -50.12 21.88 C-46.33 20.9 -43.25 18.93 -39.94 16.88 C-38.99 16.33 -38.03 15.78 -37.05 15.22 C-32.08 12.35 -27.24 9.32 -22.44 6.18 C-7.19 -3.56 -7.19 -3.56 0 0 Z " fill="#F68427" transform="translate(108.125,10.125)"/>
<path d="M0 0 C49.5 0 99 0 150 0 C150 1.65 150 3.3 150 5 C100.5 5 51 5 0 5 C0 3.35 0 1.7 0 0 Z " fill="#F6872B" transform="translate(10,101)"/>
<path d="M0 0 C6 0 6 0 8.12 1.97 C8.7 2.8 9.28 3.64 9.88 4.5 C10.47 5.34 11.07 6.17 11.68 7.03 C12.12 7.68 12.55 8.33 13 9 C13.67 8.03 13.67 8.03 14.36 7.03 C14.96 6.2 15.56 5.36 16.19 4.5 C16.78 3.66 17.37 2.83 17.98 1.97 C20 0 20 0 25 0 C25 7.59 25 15.18 25 23 C23.35 23 21.7 23 20 23 C19.67 18.38 19.34 13.76 19 9 C17.35 11.31 15.7 13.62 14 16 C9.8 14.35 9.19 12.99 6 9 C5.67 13.62 5.34 18.24 5 23 C3.35 23 1.7 23 0 23 C0 15.41 0 7.82 0 0 Z " fill="#EA7E27" transform="translate(11,69)"/>
<path d="M0 0 C5 0 5 0 7.02 1.97 C7.61 2.8 8.2 3.64 8.81 4.5 C9.42 5.34 10.02 6.17 10.64 7.03 C11.09 7.68 11.54 8.33 12 9 C14.87 5.45 14.87 5.45 17.44 1.69 C17.95 1.13 18.47 0.57 19 0 C20.65 0 22.3 0 24 0 C24 7.59 24 15.18 24 23 C22.68 23 21.36 23 20 23 C19.67 18.38 19.34 13.76 19 9 C17.02 11.31 15.04 13.62 13 16 C9 14.67 8.16 12.5 6 9 C5.67 13.62 5.34 18.24 5 23 C3.35 23 1.7 23 0 23 C0 15.41 0 7.82 0 0 Z " fill="#75767A" transform="translate(83,69)"/>
<path d="M0 0 C1.65 0 3.3 0 5 0 C6.3 2.52 7.59 5.04 8.88 7.56 C9.24 8.27 9.6 8.97 9.98 9.7 C12.2 14.07 13.81 18.24 15 23 C12.56 22.62 12.56 22.62 10 22 C9.67 21.34 9.34 20.68 9 20 C7.04 19.92 5.08 19.86 3.12 19.81 C2.03 19.78 0.94 19.74 -0.18 19.71 C-1.58 19.85 -1.58 19.85 -3 20 C-3.66 20.99 -4.32 21.98 -5 23 C-6.32 23 -7.64 23 -9 23 C-6.54 15.08 -3.33 7.58 0 0 Z " fill="#737478" transform="translate(66,69)"/>
<path d="M0 0 C0.5 0.33 0.99 0.66 1.5 1 C0.84 2.32 0.18 3.64 -0.5 5 C-1.1 4.88 -1.71 4.76 -2.33 4.64 C-7.4 3.76 -7.4 3.76 -12.12 5.44 C-13.86 8.67 -13.77 10.67 -13.11 14.22 C-12.61 16.15 -12.61 16.15 -10.81 17.56 C-7.82 18.13 -5.47 17.63 -2.5 17 C-1.51 17 -0.52 17 0.5 17 C0.5 18.32 0.5 19.64 0.5 21 C-3.36 23.05 -6.35 23.28 -10.57 22.61 C-13.79 21.59 -15.46 19.6 -17.5 17 C-19 12.49 -19.22 8.66 -17.31 4.25 C-12.76 -1.4 -6.8 -2.72 0 0 Z " fill="#727377" transform="translate(129.5,70)"/>
<path d="M0 0 C1.65 0 3.3 0 5 0 C6.32 2.97 7.64 5.94 9 9 C10.32 6.03 11.64 3.06 13 0 C14.65 0 16.3 0 18 0 C16.64 3.66 15.23 7.3 13.81 10.94 C13.43 11.98 13.04 13.02 12.64 14.09 C12.25 15.08 11.86 16.07 11.46 17.09 C10.93 18.46 10.93 18.46 10.39 19.87 C9 22 9 22 6.35 22.81 C5.18 22.9 5.18 22.9 4 23 C4.13 22.43 4.26 21.86 4.39 21.27 C5.77 13.2 3.32 7.32 0 0 Z " fill="#EA791D" transform="translate(38,76)"/>
<path d="M0 0 C3.96 0 7.92 0 12 0 C12.33 1.32 12.66 2.64 13 4 C11 6 11 6 8.65 6.23 C7.76 6.22 6.86 6.2 5.94 6.19 C4.59 6.18 4.59 6.18 3.21 6.17 C1 6 1 6 0 5 C0 3.35 0 1.7 0 0 Z " fill="#BEBEC0" transform="translate(135,86)"/>
<path d="M0 0 C0.66 0 1.32 0 2 0 C2.99 2.97 3.98 5.94 5 9 C2.36 9 -0.28 9 -3 9 C-2.01 6.03 -1.02 3.06 0 0 Z " fill="#F6F6F6" transform="translate(68,75)"/>
<path d="M0 0 C1.65 0 3.3 0 5 0 C5.62 1.88 5.62 1.88 6 4 C5.34 4.66 4.68 5.32 4 6 C1.38 5.62 1.38 5.62 -1 5 C-0.67 3.35 -0.34 1.7 0 0 Z " fill="#A0A0A3" transform="translate(142,86)"/>
<path d="M0 0 C2.97 0 5.94 0 9 0 C9 1.98 9 3.96 9 6 C8.67 6 8.34 6 8 6 C8 4.35 8 2.7 8 1 C5.49 2.26 5.13 3.5 4 6 C3.34 4.68 2.68 3.36 2 2 C1.34 3.32 0.68 4.64 0 6 C0 4.02 0 2.04 0 0 Z " fill="#727377" transform="translate(149,86)"/>
</svg>
