<svg width="12" height="16" viewBox="0 0 12 16" fill="none" xmlns="http://www.w3.org/2000/svg">
<path d="M3 12.9609H9V11.4609H3V12.9609ZM3 9.96094H9V8.46094H3V9.96094ZM1.5 15.9609C1.0875 15.9609 0.734375 15.8141 0.440625 15.5203C0.146875 15.2266 0 14.8734 0 14.4609V2.46094C0 2.04844 0.146875 1.69531 0.440625 1.40156C0.734375 1.10781 1.0875 0.960938 1.5 0.960938H7.5L12 5.46094V14.4609C12 14.8734 11.8531 15.2266 11.5594 15.5203C11.2656 15.8141 10.9125 15.9609 10.5 15.9609H1.5ZM6.75 6.21094V2.46094H1.5V14.4609H10.5V6.21094H6.75Z" fill="white"/>
</svg>
